<svg width="17" height="17" viewBox="0 0 17 17" fill="none" xmlns="http://www.w3.org/2000/svg">
<path d="M11.1668 16.3134C10.9868 16.3134 10.8201 16.2134 10.7334 16.0601C10.6468 15.9068 10.6468 15.7134 10.7401 15.5601L11.4401 14.3934C11.5801 14.1534 11.8868 14.0801 12.1268 14.2201C12.3668 14.3601 12.4401 14.6667 12.3001 14.9067L12.1201 15.2067C13.9601 14.7734 15.3401 13.1201 15.3401 11.1467C15.3401 10.8734 15.5668 10.6467 15.8401 10.6467C16.1134 10.6467 16.3401 10.8734 16.3401 11.1467C16.3334 13.9934 14.0134 16.3134 11.1668 16.3134Z" fill="white"/>
<path d="M1.16669 6.3134C0.893354 6.3134 0.666687 6.08673 0.666687 5.8134C0.666687 2.96673 2.98669 0.646729 5.83335 0.646729C6.01335 0.646729 6.18002 0.746732 6.26669 0.900065C6.35335 1.0534 6.35335 1.24673 6.26002 1.40007L5.56002 2.56673C5.42002 2.80673 5.11335 2.88007 4.87335 2.74007C4.63335 2.60007 4.56002 2.29343 4.70002 2.05343L4.88002 1.75342C3.04002 2.18675 1.66002 3.84006 1.66002 5.8134C1.66669 6.08673 1.44002 6.3134 1.16669 6.3134Z" fill="white"/>
<path d="M6.78673 11.22H4.91339C4.64006 11.22 4.41339 10.9933 4.41339 10.72V9.21997C4.41339 8.94664 4.64006 8.71997 4.91339 8.71997H6.78673C7.45339 8.71997 8.04006 9.30664 8.04006 9.97331C8.04006 10.6533 7.47339 11.22 6.78673 11.22ZM5.41339 10.22H6.78673C6.92673 10.22 7.04006 10.1066 7.04006 9.96663C7.04006 9.86663 6.92673 9.7133 6.78673 9.7133H5.41339V10.22Z" fill="white"/>
<path d="M7.05322 12.72H4.90656C4.63322 12.72 4.40656 12.4933 4.40656 12.22V10.72C4.40656 10.4466 4.63322 10.22 4.90656 10.22H7.05322C7.79989 10.22 8.41322 10.78 8.41322 11.4733C8.41322 12.1666 7.80656 12.72 7.05322 12.72ZM5.41322 11.72H7.05989C7.27322 11.72 7.41989 11.5866 7.41989 11.4666C7.41989 11.3466 7.27322 11.2133 7.05989 11.2133H5.41322V11.72Z" fill="white"/>
<path d="M6.11328 13.4667C5.83995 13.4667 5.61328 13.24 5.61328 12.9667V12.2134C5.61328 11.94 5.83995 11.7134 6.11328 11.7134C6.38661 11.7134 6.61328 11.94 6.61328 12.2134V12.9667C6.61328 13.2467 6.38661 13.4667 6.11328 13.4667Z" fill="white"/>
<path d="M6.11328 9.7133C5.83995 9.7133 5.61328 9.48663 5.61328 9.2133V8.45996C5.61328 8.18663 5.83995 7.95996 6.11328 7.95996C6.38661 7.95996 6.61328 8.18663 6.61328 8.45996V9.2133C6.61328 9.4933 6.38661 9.7133 6.11328 9.7133Z" fill="white"/>
<path d="M6.28002 15.3334C3.73335 15.3334 1.66669 13.2601 1.66669 10.7201C1.66669 8.18005 3.74002 6.10669 6.28002 6.10669C6.40002 6.10669 6.50669 6.11337 6.62669 6.12004C8.88669 6.29337 10.7134 8.12003 10.88 10.3667C10.8867 10.5134 10.8934 10.6134 10.8934 10.7201C10.9 13.2601 8.82669 15.3334 6.28002 15.3334ZM6.28002 7.10006C4.28669 7.10006 2.66669 8.72005 2.66669 10.7134C2.66669 12.7067 4.28669 14.3267 6.28002 14.3267C8.27335 14.3267 9.90002 12.7067 9.90002 10.7134C9.90002 10.6267 9.89336 10.54 9.88669 10.4534C9.75336 8.6667 8.32002 7.24002 6.56002 7.10669C6.47335 7.10669 6.38002 7.10006 6.28002 7.10006Z" fill="white"/>
<path d="M10.7201 10.9H10.3934C10.1334 10.9 9.91342 10.7 9.89342 10.44C9.76008 8.67332 8.33342 7.24665 6.56675 7.11332C6.30675 7.09332 6.10675 6.87332 6.10675 6.61332V6.28666C6.10675 3.74 8.18008 1.67334 10.7268 1.67334C13.2734 1.67334 15.3401 3.74666 15.3401 6.28666C15.3401 8.82666 13.2601 10.9 10.7201 10.9ZM7.10008 6.17334C8.98008 6.51334 10.4868 8.01332 10.8268 9.89998C12.7734 9.83998 14.3334 8.24 14.3334 6.28666C14.3334 4.29333 12.7134 2.67334 10.7201 2.67334C8.76009 2.66667 7.16008 4.22667 7.10008 6.17334Z" fill="white"/>
</svg>
