<svg width="44" height="52" viewBox="0 0 44 52" fill="none" xmlns="http://www.w3.org/2000/svg">
<circle cx="22" cy="4" r="4" fill="#177DFF"/>
<path d="M30.83 26.01L24.28 20.77C23 19.75 21 19.74 19.73 20.76L13.18 26.01C12.24 26.76 11.67 28.26 11.87 29.44L13.13 36.98C13.42 38.67 14.99 40 16.7 40H27.3C28.99 40 30.59 38.64 30.88 36.97L32.14 29.43C32.32 28.26 31.75 26.76 30.83 26.01ZM22.75 36C22.75 36.41 22.41 36.75 22 36.75C21.59 36.75 21.25 36.41 21.25 36V33C21.25 32.59 21.59 32.25 22 32.25C22.41 32.25 22.75 32.59 22.75 33V36Z" fill="#177DFF"/>
</svg>
