<svg width="107" height="162" viewBox="0 0 107 162" fill="none" xmlns="http://www.w3.org/2000/svg">
<g opacity="0.24">
<path fill-rule="evenodd" clip-rule="evenodd" d="M-151.301 103.958C-119.105 73.8968 -78.4441 45.5628 -38.6951 64.1416C7.77111 85.8602 40.4518 137.561 26.4996 187.063C14.5184 229.572 -41.654 224.445 -85.4488 230.024C-128.205 235.47 -181.54 254.202 -201.444 216.099C-222.33 176.115 -184.412 134.874 -151.301 103.958Z" stroke="#E8F2FF"/>
<path fill-rule="evenodd" clip-rule="evenodd" d="M-138.301 95.9582C-106.105 65.8968 -65.4441 37.5628 -25.6951 56.1416C20.7711 77.8602 53.4518 129.561 39.4996 179.063C27.5184 221.572 -28.654 216.445 -72.4488 222.024C-115.205 227.47 -168.54 246.202 -188.444 208.099C-209.33 168.115 -171.412 126.874 -138.301 95.9582Z" stroke="#E8F2FF"/>
<path fill-rule="evenodd" clip-rule="evenodd" d="M-125.301 89.9582C-93.1047 59.8968 -52.4441 31.5628 -12.6951 50.1416C33.7711 71.8602 66.4518 123.561 52.4996 173.063C40.5184 215.572 -15.654 210.445 -59.4488 216.024C-102.205 221.47 -155.54 240.202 -175.444 202.099C-196.33 162.115 -158.412 120.874 -125.301 89.9582Z" stroke="#E8F2FF"/>
<path fill-rule="evenodd" clip-rule="evenodd" d="M-109.301 80.9582C-77.1047 50.8968 -36.4441 22.5628 3.30488 41.1416C49.7711 62.8602 82.4518 114.561 68.4996 164.063C56.5184 206.572 0.34604 201.445 -43.4488 207.024C-86.2047 212.47 -139.54 231.202 -159.444 193.099C-180.33 153.115 -142.412 111.874 -109.301 80.9582Z" stroke="#E8F2FF"/>
</g>
</svg>
