<svg width="25" height="54" viewBox="0 0 25 54" fill="none" xmlns="http://www.w3.org/2000/svg">
<g opacity="0.24">
<path fill-rule="evenodd" clip-rule="evenodd" d="M-76.879 27.1385C-64.1384 15.2427 -48.0483 4.03049 -32.3191 11.3824C-13.9316 19.9768 -0.999361 40.4355 -6.52046 60.0244C-11.2616 76.8461 -33.4899 74.8172 -50.8202 77.0247C-67.7394 79.1799 -88.845 86.5925 -96.7213 71.5143C-104.986 55.692 -89.9815 39.3722 -76.879 27.1385Z" stroke="#177DFF"/>
<path fill-rule="evenodd" clip-rule="evenodd" d="M-71.7347 23.9722C-58.9941 12.0765 -42.904 0.864232 -27.1748 8.21617C-8.78734 16.8105 4.14493 37.2692 -1.37618 56.8581C-6.11733 73.6798 -28.3456 71.6509 -45.6759 73.8585C-62.5951 76.0137 -83.7007 83.4262 -91.577 68.3481C-99.842 52.5257 -84.8372 36.2059 -71.7347 23.9722Z" stroke="#177DFF"/>
<path fill-rule="evenodd" clip-rule="evenodd" d="M-66.5904 21.5987C-53.8498 9.70292 -37.7598 -1.5093 -22.0305 5.84264C-3.64306 14.437 9.28921 34.8957 3.76811 54.4846C-0.973041 71.3063 -23.2013 69.2774 -40.5316 71.485C-57.4508 73.6401 -78.5564 81.0527 -86.4327 65.9745C-94.6978 50.1522 -79.6929 33.8324 -66.5904 21.5987Z" stroke="#177DFF"/>
<path fill-rule="evenodd" clip-rule="evenodd" d="M-60.2589 18.0364C-47.5183 6.14066 -31.4282 -5.07156 -15.6989 2.28038C2.68849 10.8748 15.6208 31.3334 10.0997 50.9223C5.3585 67.744 -16.8698 65.7151 -34.2001 67.9227C-51.1193 70.0779 -72.2249 77.4905 -80.1012 62.4123C-88.3662 46.5899 -73.3613 30.2701 -60.2589 18.0364Z" stroke="#177DFF"/>
</g>
</svg>
