<svg width="17" height="17" viewBox="0 0 17 17" fill="none" xmlns="http://www.w3.org/2000/svg">
<path d="M9.19997 11.3332H7.94666C7.05999 11.3332 6.33331 10.5866 6.33331 9.66658C6.33331 9.39324 6.55998 9.16658 6.83331 9.16658C7.10665 9.16658 7.33331 9.39324 7.33331 9.66658C7.33331 10.0332 7.60666 10.3332 7.94666 10.3332H9.19997C9.45997 10.3332 9.66665 10.0999 9.66665 9.81324C9.66665 9.45324 9.56665 9.39991 9.33999 9.31991L7.33331 8.6199C6.90665 8.47324 6.33331 8.15991 6.33331 7.17991C6.33331 6.34658 6.99332 5.65991 7.79999 5.65991H9.0533C9.93997 5.65991 10.6666 6.40658 10.6666 7.32658C10.6666 7.59991 10.44 7.82658 10.1666 7.82658C9.89331 7.82658 9.66665 7.59991 9.66665 7.32658C9.66665 6.95991 9.3933 6.65991 9.0533 6.65991H7.79999C7.53999 6.65991 7.33331 6.89324 7.33331 7.17991C7.33331 7.53991 7.43331 7.59324 7.65997 7.67324L9.66665 8.37324C10.0933 8.51991 10.6666 8.83324 10.6666 9.81324C10.6666 10.6532 10.0066 11.3332 9.19997 11.3332Z" fill="white"/>
<path d="M8.5 12C8.22667 12 8 11.7733 8 11.5V5.5C8 5.22667 8.22667 5 8.5 5C8.77333 5 9 5.22667 9 5.5V11.5C9 11.7733 8.77333 12 8.5 12Z" fill="white"/>
<path d="M8.49998 15.6666C4.54665 15.6666 1.33331 12.4533 1.33331 8.49992C1.33331 4.54659 4.54665 1.33325 8.49998 1.33325C8.77331 1.33325 8.99998 1.55992 8.99998 1.83325C8.99998 2.10659 8.77331 2.33325 8.49998 2.33325C5.09998 2.33325 2.33331 5.09992 2.33331 8.49992C2.33331 11.8999 5.09998 14.6666 8.49998 14.6666C11.9 14.6666 14.6666 11.8999 14.6666 8.49992C14.6666 8.22659 14.8933 7.99992 15.1666 7.99992C15.44 7.99992 15.6666 8.22659 15.6666 8.49992C15.6666 12.4533 12.4533 15.6666 8.49998 15.6666Z" fill="white"/>
<path d="M14.5 5.66667H11.8333C11.56 5.66667 11.3333 5.44 11.3333 5.16667V2.5C11.3333 2.22667 11.56 2 11.8333 2C12.1066 2 12.3333 2.22667 12.3333 2.5V4.66667H14.5C14.7733 4.66667 15 4.89333 15 5.16667C15 5.44 14.7733 5.66667 14.5 5.66667Z" fill="white"/>
<path d="M11.8333 5.66663C11.7066 5.66663 11.58 5.61996 11.48 5.51996C11.2866 5.32663 11.2866 5.00663 11.48 4.81329L14.8133 1.47996C15.0066 1.28663 15.3266 1.28663 15.52 1.47996C15.7133 1.67329 15.7133 1.99329 15.52 2.18663L12.1866 5.51996C12.0866 5.61996 11.96 5.66663 11.8333 5.66663Z" fill="white"/>
</svg>
