<svg width="52" height="52" viewBox="0 0 52 52" fill="none" xmlns="http://www.w3.org/2000/svg">
<rect width="52" height="52" rx="12" fill="#F0F6FD"/>
<path d="M26 24.5199C25.59 24.5199 25.25 24.1799 25.25 23.7699V20.4399C25.25 20.0299 25.59 19.6899 26 19.6899C26.41 19.6899 26.75 20.0299 26.75 20.4399V23.7699C26.75 24.1899 26.41 24.5199 26 24.5199Z" fill="#177DFF"/>
<path d="M26.02 34.35C23.44 34.35 20.87 33.94 18.42 33.12C17.51 32.82 16.82 32.17 16.52 31.35C16.22 30.53 16.32 29.59 16.81 28.77L18.08 26.65C18.36 26.18 18.61 25.3 18.61 24.75V22.65C18.61 18.56 21.93 15.24 26.02 15.24C30.11 15.24 33.43 18.56 33.43 22.65V24.75C33.43 25.29 33.68 26.18 33.96 26.65L35.23 28.77C35.7 29.55 35.78 30.48 35.47 31.33C35.16 32.18 34.48 32.83 33.62 33.12C31.17 33.95 28.6 34.35 26.02 34.35ZM26.02 16.75C22.76 16.75 20.11 19.4 20.11 22.66V24.76C20.11 25.57 19.79 26.74 19.37 27.43L18.1 29.56C17.84 29.99 17.78 30.45 17.93 30.85C18.08 31.25 18.42 31.55 18.9 31.71C23.5 33.24 28.56 33.24 33.16 31.71C33.59 31.57 33.92 31.25 34.07 30.83C34.23 30.41 34.18 29.95 33.95 29.56L32.68 27.44C32.26 26.75 31.94 25.58 31.94 24.77V22.67C31.93 19.4 29.28 16.75 26.02 16.75Z" fill="#177DFF"/>
<path d="M26 36.9001C24.93 36.9001 23.88 36.4601 23.12 35.7001C22.36 34.9401 21.92 33.8901 21.92 32.8201H23.42C23.42 33.5001 23.7 34.1601 24.18 34.6401C24.66 35.1201 25.32 35.4001 26 35.4001C27.42 35.4001 28.58 34.2401 28.58 32.8201H30.08C30.08 35.0701 28.25 36.9001 26 36.9001Z" fill="#177DFF"/>
</svg>
