<svg width="52" height="52" viewBox="0 0 52 52" fill="none" xmlns="http://www.w3.org/2000/svg">
<rect width="52" height="52" rx="12" fill="#F0F6FD"/>
<path d="M36 21.25H30C29.59 21.25 29.25 20.91 29.25 20.5C29.25 20.09 29.59 19.75 30 19.75H36C36.41 19.75 36.75 20.09 36.75 20.5C36.75 20.91 36.41 21.25 36 21.25Z" fill="#177DFF"/>
<path d="M20 21.25H16C15.59 21.25 15.25 20.91 15.25 20.5C15.25 20.09 15.59 19.75 16 19.75H20C20.41 19.75 20.75 20.09 20.75 20.5C20.75 20.91 20.41 21.25 20 21.25Z" fill="#177DFF"/>
<path d="M24 24.75C21.66 24.75 19.75 22.84 19.75 20.5C19.75 18.16 21.66 16.25 24 16.25C26.34 16.25 28.25 18.16 28.25 20.5C28.25 22.84 26.34 24.75 24 24.75ZM24 17.75C22.48 17.75 21.25 18.98 21.25 20.5C21.25 22.02 22.48 23.25 24 23.25C25.52 23.25 26.75 22.02 26.75 20.5C26.75 18.98 25.52 17.75 24 17.75Z" fill="#177DFF"/>
<path d="M36 32.25H32C31.59 32.25 31.25 31.91 31.25 31.5C31.25 31.09 31.59 30.75 32 30.75H36C36.41 30.75 36.75 31.09 36.75 31.5C36.75 31.91 36.41 32.25 36 32.25Z" fill="#177DFF"/>
<path d="M22 32.25H16C15.59 32.25 15.25 31.91 15.25 31.5C15.25 31.09 15.59 30.75 16 30.75H22C22.41 30.75 22.75 31.09 22.75 31.5C22.75 31.91 22.41 32.25 22 32.25Z" fill="#177DFF"/>
<path d="M28 35.75C25.66 35.75 23.75 33.84 23.75 31.5C23.75 29.16 25.66 27.25 28 27.25C30.34 27.25 32.25 29.16 32.25 31.5C32.25 33.84 30.34 35.75 28 35.75ZM28 28.75C26.48 28.75 25.25 29.98 25.25 31.5C25.25 33.02 26.48 34.25 28 34.25C29.52 34.25 30.75 33.02 30.75 31.5C30.75 29.98 29.52 28.75 28 28.75Z" fill="#177DFF"/>
</svg>
