<svg width="52" height="52" viewBox="0 0 52 52" fill="none" xmlns="http://www.w3.org/2000/svg">
<path d="M26 36.63C25.33 36.63 24.65 36.48 24.12 36.17L18.62 33C16.38 31.49 16.24 31.26 16.24 28.89V23.11C16.24 20.74 16.37 20.51 18.57 19.02L24.11 15.82C25.16 15.21 26.81 15.21 27.86 15.82L33.38 19C35.62 20.51 35.76 20.74 35.76 23.11V28.88C35.76 31.25 35.63 31.48 33.43 32.97L27.89 36.17C27.35 36.48 26.67 36.63 26 36.63ZM26 16.87C25.58 16.87 25.17 16.95 24.88 17.12L19.38 20.3C17.75 21.4 17.75 21.4 17.75 23.11V28.88C17.75 30.59 17.75 30.59 19.42 31.72L24.88 34.8701C25.47 35.2101 26.54 35.2101 27.13 34.8701L32.63 31.6901C34.25 30.59 34.25 30.59 34.25 28.88V23.11C34.25 21.4 34.25 21.4 32.58 20.27L27.12 17.12C26.83 16.95 26.42 16.87 26 16.87Z" fill="#177DFF"/>
<path d="M26 29.75C23.93 29.75 22.25 28.07 22.25 26C22.25 23.93 23.93 22.25 26 22.25C28.07 22.25 29.75 23.93 29.75 26C29.75 28.07 28.07 29.75 26 29.75ZM26 23.75C24.76 23.75 23.75 24.76 23.75 26C23.75 27.24 24.76 28.25 26 28.25C27.24 28.25 28.25 27.24 28.25 26C28.25 24.76 27.24 23.75 26 23.75Z" fill="#177DFF"/>
</svg>
