<svg width="33" height="52" viewBox="0 0 33 52" fill="none" xmlns="http://www.w3.org/2000/svg">
<g opacity="0.24">
<path fill-rule="evenodd" clip-rule="evenodd" d="M33.121 -33.8615C45.8616 -45.7573 61.9517 -56.9695 77.6809 -49.6176C96.0684 -41.0232 109.001 -20.5645 103.48 -0.975608C98.7384 15.8461 76.5101 13.8172 59.1798 16.0247C42.2606 18.1799 21.155 25.5925 13.2787 10.5143C5.01367 -5.30802 20.0185 -21.6278 33.121 -33.8615Z" stroke="#177DFF"/>
<path fill-rule="evenodd" clip-rule="evenodd" d="M38.2653 -37.0278C51.0059 -48.9235 67.096 -60.1358 82.8252 -52.7838C101.213 -44.1895 114.145 -23.7308 108.624 -4.14187C103.883 12.6798 81.6544 10.6509 64.3241 12.8585C47.4049 15.0137 26.2993 22.4262 18.423 7.34805C10.158 -8.47428 25.1628 -24.7941 38.2653 -37.0278Z" stroke="#177DFF"/>
<path fill-rule="evenodd" clip-rule="evenodd" d="M43.4096 -39.4013C56.1502 -51.2971 72.2402 -62.5093 87.9695 -55.1574C106.357 -46.563 119.289 -26.1043 113.768 -6.5154C109.027 10.3063 86.7987 8.27739 69.4684 10.485C52.5492 12.6401 31.4436 20.0527 23.5673 4.97452C15.3022 -10.8478 30.3071 -27.1676 43.4096 -39.4013Z" stroke="#177DFF"/>
<path fill-rule="evenodd" clip-rule="evenodd" d="M49.7412 -42.9636C62.4818 -54.8593 78.5718 -66.0716 94.3011 -58.7196C112.689 -50.1252 125.621 -29.6666 120.1 -10.0777C115.359 6.744 93.1303 4.71513 75.8 6.92269C58.8808 9.07788 37.7752 16.4905 29.8989 1.41226C21.6338 -14.4101 36.6387 -30.7299 49.7412 -42.9636Z" stroke="#177DFF"/>
</g>
</svg>
