<svg width="26" height="26" viewBox="0 0 26 26" fill="none" xmlns="http://www.w3.org/2000/svg">
<rect width="26" height="26" rx="13" fill="#E44848" fill-opacity="0.2"/>
<path d="M15.337 15.0641C14.885 15.0641 14.5101 14.6892 14.5101 14.2372V10.6539H10.9268C10.4747 10.6539 10.0999 10.279 10.0999 9.82693C10.0999 9.37487 10.4747 9 10.9268 9H15.337C15.7891 9 16.164 9.37487 16.164 9.82693V14.2372C16.164 14.6892 15.7891 15.0641 15.337 15.0641Z" fill="#E44848"/>
<path d="M9.82417 16.1666C9.61468 16.1666 9.40519 16.0894 9.23981 15.924C8.92006 15.6043 8.92006 15.0751 9.23981 14.7553L14.7526 9.24249C15.0724 8.92275 15.6016 8.92275 15.9214 9.24249C16.2411 9.56224 16.2411 10.0915 15.9214 10.4112L10.4085 15.924C10.2431 16.0894 10.0337 16.1666 9.82417 16.1666Z" fill="#E44848"/>
</svg>
